<?xml version="1.0" standalone="no"?><!DOCTYPE svg PUBLIC "-//W3C//DTD SVG 1.1//EN" "http://www.w3.org/Graphics/SVG/1.1/DTD/svg11.dtd"><svg t="1607480349727" class="icon" viewBox="0 0 1024 1024" version="1.1" xmlns="http://www.w3.org/2000/svg" p-id="3462" xmlns:xlink="http://www.w3.org/1999/xlink" width="64" height="64"><defs><style type="text/css"></style></defs><path d="M979.797333 362.769067v163.413333l39.389867 45.1072-75.6224 65.553067-69.12-65.553067 41.5744-46.2848V389.802667c-223.470933 91.170133-283.989333 119.483733-333.533867 141.6192-49.5616 22.1184-85.265067 22.016-134.417066 3.669333-49.152-18.312533-272.008533-102.8096-388.1984-157.815467-77.533867-36.727467-82.5344-59.989333 1.3312-91.136 109.431467-41.130667 279.176533-107.008 375.057066-142.967466 56.763733-22.715733 86.766933-35.1232 138.871467-9.216 93.013333 38.007467 294.4512 116.906667 400.145067 160.085333 92.0064 39.7312 30.1568 52.804267 4.522666 68.727467zM593.2544 599.210667c54.050133-22.0672 126.907733-58.538667 206.370133-92.228267V777.386667s-102.7584 108.151467-283.409066 108.151466c-194.525867 0-299.605333-108.151467-299.605334-108.151466V525.0048c61.320533 24.712533 130.184533 45.9776 213.504 74.205867 51.370667 18.0736 116.565333 24.32 163.157334 0z" fill="#1296db" p-id="3463"></path></svg>